<svg width="372" height="40" viewBox="0 0 372 40" fill="none" xmlns="http://www.w3.org/2000/svg">
<path d="M129.151 29.9481H115.412L111.782 38.6723H105.82L122.515 0H122.878L139.573 38.6723H132.625L129.151 29.9481ZM127.129 24.8462L122.411 13.1118L117.537 24.8462H127.129Z" fill="#F4BCBB"/>
<path d="M164.057 38.6723L155.554 25.7645H154.931H149.487V38.6723H143.421V1.53056H154.05C158.267 1.53056 161.637 2.58496 164.16 4.69374C166.718 6.80252 167.997 9.7276 167.997 13.469C167.997 15.7478 167.496 17.8736 166.494 19.8463C165.526 21.7851 163.988 23.2816 161.879 24.336L171.056 38.6723H164.057ZM149.487 20.0504H154.88C157.299 20.0504 159.045 19.4042 160.116 18.1117C161.222 16.7852 161.775 15.3057 161.775 13.6731C161.775 12.7207 161.568 11.7684 161.153 10.816C160.738 9.82964 160.03 8.99633 159.027 8.31608C158.025 7.60181 156.712 7.24468 155.087 7.24468H149.487V20.0504Z" fill="#F4BCBB"/>
<path d="M181.629 1.53056V38.6723H175.563V1.53056H181.629Z" fill="#F4BCBB"/>
<path d="M208.818 29.9481H195.078L191.449 38.6723H185.486L202.181 0H202.544L219.239 38.6723H212.292L208.818 29.9481ZM206.796 24.8462L202.078 13.1118L197.204 24.8462H206.796Z" fill="#F4BCBB"/>
<path d="M234.77 20.1525C234.77 16.7512 235.634 13.605 237.362 10.714C239.09 7.78888 241.424 5.45902 244.362 3.72438C247.334 1.98973 250.566 1.12241 254.057 1.12241C257.514 1.12241 260.711 1.98973 263.649 3.72438C266.622 5.45902 268.99 7.78888 270.752 10.714C272.515 13.639 273.397 16.7852 273.397 20.1525C273.397 23.5877 272.515 26.7509 270.752 29.642C269.024 32.533 266.674 34.8289 263.701 36.5295C260.728 38.2301 257.514 39.0805 254.057 39.0805C250.566 39.0805 247.334 38.2472 244.362 36.5805C241.424 34.8799 239.09 32.5841 237.362 29.693C235.634 26.8019 234.77 23.6217 234.77 20.1525ZM240.991 20.1525C240.991 22.5673 241.579 24.7782 242.754 26.7849C243.93 28.7917 245.52 30.3902 247.524 31.5807C249.564 32.7711 251.793 33.3663 254.213 33.3663C256.598 33.3663 258.775 32.7881 260.746 31.6317C262.716 30.4413 264.271 28.8427 265.412 26.8359C266.587 24.7952 267.175 22.5673 267.175 20.1525C267.175 17.7376 266.587 15.5097 265.412 13.469C264.237 11.4282 262.647 9.81263 260.642 8.62219C258.637 7.43175 256.442 6.83653 254.057 6.83653C251.638 6.83653 249.425 7.43175 247.421 8.62219C245.45 9.81263 243.878 11.4282 242.702 13.469C241.562 15.5097 240.991 17.7376 240.991 20.1525Z" fill="#F4BCBB"/>
<path d="M298.671 9.08136C295.422 7.41474 292.536 6.58144 290.013 6.58144C288.146 6.58144 286.66 6.98959 285.554 7.80589C284.482 8.62219 283.946 9.74461 283.946 11.1731C283.946 12.5676 284.62 13.7411 285.968 14.6934C287.351 15.6118 289.269 16.5301 291.724 17.4485C293.59 18.0947 295.18 18.843 296.494 19.6933C297.842 20.5096 298.948 21.632 299.812 23.0605C300.676 24.4891 301.108 26.2917 301.108 28.4685C301.108 30.4413 300.607 32.2269 299.605 33.8255C298.602 35.4241 297.15 36.6996 295.249 37.6519C293.348 38.6043 291.101 39.0805 288.509 39.0805C286.228 39.0805 283.981 38.7403 281.769 38.0601C279.556 37.3458 277.586 36.3765 275.858 35.152L278.554 30.5093C279.833 31.4616 281.337 32.2609 283.065 32.9072C284.828 33.5194 286.452 33.8255 287.939 33.8255C289.771 33.8255 291.378 33.4004 292.761 32.55C294.143 31.6657 294.834 30.3222 294.834 28.5196C294.834 27.091 294.247 25.9006 293.072 24.9482C291.931 23.9959 290.324 23.1286 288.25 22.3463C286.107 21.564 284.327 20.7987 282.909 20.0504C281.492 19.2681 280.265 18.1967 279.228 16.8362C278.226 15.4417 277.724 13.7071 277.724 11.6323C277.724 8.60518 278.761 6.17328 280.835 4.3366C282.944 2.46591 285.709 1.46254 289.131 1.32649C291.62 1.32649 293.798 1.6156 295.664 2.19381C297.565 2.73801 299.328 3.5203 300.953 4.54068L298.671 9.08136Z" fill="#F4BCBB"/>
<path d="M312.516 1.53056V32.9582H331.13V38.6723H306.45V1.53056H312.516Z" fill="#F4BCBB"/>
<path d="M333.373 20.1525C333.373 16.7512 334.237 13.605 335.965 10.714C337.694 7.78888 340.027 5.45902 342.965 3.72438C345.938 1.98973 349.169 1.12241 352.661 1.12241C356.117 1.12241 359.314 1.98973 362.253 3.72438C365.225 5.45902 367.593 7.78888 369.356 10.714C371.119 13.639 372 16.7852 372 20.1525C372 23.5877 371.119 26.7509 369.356 29.642C367.627 32.533 365.277 34.8289 362.304 36.5295C359.332 38.2301 356.117 39.0805 352.661 39.0805C349.169 39.0805 345.938 38.2472 342.965 36.5805C340.027 34.8799 337.694 32.5841 335.965 29.693C334.237 26.8019 333.373 23.6217 333.373 20.1525ZM339.595 20.1525C339.595 22.5673 340.182 24.7782 341.358 26.7849C342.533 28.7917 344.123 30.3902 346.128 31.5807C348.167 32.7711 350.396 33.3663 352.816 33.3663C355.201 33.3663 357.379 32.7881 359.349 31.6317C361.319 30.4413 362.875 28.8427 364.015 26.8359C365.191 24.7952 365.778 22.5673 365.778 20.1525C365.778 17.7376 365.191 15.5097 364.015 13.469C362.84 11.4282 361.25 9.81263 359.245 8.62219C357.24 7.43175 355.046 6.83653 352.661 6.83653C350.241 6.83653 348.029 7.43175 346.024 8.62219C344.054 9.81263 342.481 11.4282 341.306 13.469C340.165 15.5097 339.595 17.7376 339.595 20.1525Z" fill="#F4BCBB"/>
<path d="M23.1047 1.21954L46.2094 39.2683H0L23.1047 1.21954Z" fill="#077644"/>
<mask id="mask0_9_7" style="mask-type:alpha" maskUnits="userSpaceOnUse" x="0" y="1" width="47" height="39">
<path d="M23.2207 1.21954L46.3254 39.2683H0.115967L23.2207 1.21954Z" fill="#C4C4C4"/>
</mask>
<g mask="url(#mask0_9_7)">
<path d="M23.2207 1.21954H46.1943V39.2683H23.2207V1.21954Z" fill="#F4BCBB"/>
</g>
<ellipse cx="66.3345" cy="20" rx="20.2563" ry="20" fill="#3038FF"/>
<mask id="mask1_9_7" style="mask-type:alpha" maskUnits="userSpaceOnUse" x="46" y="0" width="41" height="40">
<ellipse cx="66.3345" cy="20" rx="20.2563" ry="20" fill="#3038FF"/>
</mask>
<g mask="url(#mask1_9_7)">
<rect x="66.3345" y="20.7692" width="20.2563" height="19.2308" fill="#3038FF"/>
</g>
<mask id="mask2_9_7" style="mask-type:alpha" maskUnits="userSpaceOnUse" x="46" y="0" width="41" height="40">
<ellipse cx="66.3345" cy="20" rx="20.2563" ry="20" fill="#077644"/>
</mask>
<g mask="url(#mask2_9_7)">
<rect x="66.3345" width="20.2563" height="21.0256" fill="#077644"/>
</g>
<mask id="mask3_9_7" style="mask-type:alpha" maskUnits="userSpaceOnUse" x="46" y="0" width="41" height="40">
<ellipse cx="66.3345" cy="20" rx="20.2563" ry="20" fill="#F4BCBB"/>
</mask>
<g mask="url(#mask3_9_7)">
<rect x="46.0782" y="21.0256" width="20.2563" height="21.0256" fill="#F4BCBB"/>
</g>
</svg>
